<?xml version="1.0" encoding="utf-8"?>
<!-- Generator: Adobe Illustrator 24.1.1, SVG Export Plug-In . SVG Version: 6.00 Build 0)  -->
<svg version="1.1" id="Layer_1" xmlns="http://www.w3.org/2000/svg" xmlns:xlink="http://www.w3.org/1999/xlink" x="0px" y="0px"
	 viewBox="0 0 500 500" style="enable-background:new 0 0 500 500;" xml:space="preserve">
<style type="text/css">
	.st0{fill-rule:evenodd;clip-rule:evenodd;fill:url(#SVGID_1_);}
</style>
<g>
	
		<linearGradient id="SVGID_1_" gradientUnits="userSpaceOnUse" x1="-469.4386" y1="181.475" x2="-472.4037" y2="184.4401" gradientTransform="matrix(104.7715 0 0 123.097 49603.0039 -22255.209)">
		<stop  offset="0" style="stop-color:#FF7854"/>
		<stop  offset="1" style="stop-color:#FD267D"/>
	</linearGradient>
	<path class="st0" d="M187.39,214.7c69.68-24.02,81.54-86.58,72.65-144.11c0-2.08,1.78-3.56,3.56-2.97
		c66.72,32.62,141.73,103.78,141.73,210.53c0,81.84-63.45,154.19-155.67,154.19c-81.81,3.71-151.13-59.57-154.84-141.38
		c-2.46-54.17,24.85-105.38,71.22-133.49c1.78-1.19,4.15,0,4.15,2.08c0.89,10.97,3.85,38.55,16.01,55.15
		C186.21,214.7,187.39,214.7,187.39,214.7z"/>
</g>
</svg>
